PathFileType	4	(X/Y/Z)	OpenSim_Sub08_EMGStiffKnee_Accel.trc
DataRate	CameraRate	NumFrames	NumMarkers	Units	OrigDataRate	OrigDataStartFrame	OrigNumFrames
100	100	24	8	m	100	1576	6301
Frame#	Time	torso_imu_offset_imu	pelvis_imu_offset_imu	tibia_r_imu_offset_imu	femur_r_imu_offset_imu	tibia_l_imu_offset_imu	femur_l_imu_offset_imu	toes_r_imu_offset_imu	toes_l_imu_offset_imu
				X1	Y1	Z1	X2	Y2	Z2	X3	Y3	Z3	X4	Y4	Z4	X5	Y5	Z5	X6	Y6	Z6	X7	Y7	Z7	X8		Y8	Z8	

1576	15.75000000	8.98616528	0.14039019	5.24540357	9.19244402	2.16306432	3.11592288	9.55845707	-1.18811976	-1.26388522	9.46071864	-2.13712565	-0.49541584	2.27111227	-5.02034587	2.82127583	9.60694849	1.87071973	0.99044554	5.04051823	-2.81136325	8.11562442	4.09919788	-2.41614354	10.65814757
1577	15.76000000	9.02058478	0.23444144	5.26404074	9.60456573	1.60393655	3.17951798	9.85506213	0.53715353	-1.28433207	9.34996090	-2.31826323	-0.43554051	3.21645390	-5.30213508	2.02734740	9.28533491	1.95249951	1.01755536	5.67836387	-3.01084739	7.94278247	3.45365888	-4.91942801	9.36581616
1578	15.77000000	9.06769830	0.24440479	5.35923470	9.83836537	0.98269787	3.29788596	9.82156327	1.49860629	-1.22655519	9.12565650	-2.22935755	-0.43981099	3.78242259	-6.49968413	1.24966615	8.80199636	1.88502158	0.99509231	5.41093981	-3.14700244	7.84695957	4.42919044	-5.83259761	9.09388025
1579	15.78000000	9.06390673	0.20416068	5.37030960	9.85526086	0.36001386	3.15942013	9.58006774	1.70620446	-1.20457623	9.01140706	-1.86885112	-0.36821796	4.05364597	-8.02725927	0.57070148	8.52014876	1.70102549	0.94485149	5.42559542	-2.86428080	7.92277550	5.31982512	-4.83128031	9.85705475
1580	15.79000000	8.89445706	0.07516682	5.35800244	9.53978173	-0.11127181	2.97917433	9.34816117	1.04859118	-1.26647923	9.17813442	-1.33270136	-0.26131705	4.57053692	-8.70056901	0.11106538	8.42329188	1.37122789	0.96109749	5.34275843	-2.83299564	7.98398594	6.19285486	-4.26747113	10.34095644
1581	15.80000000	8.61460760	-0.00368728	5.37103403	9.08802211	-0.16698209	2.80560920	9.40662887	0.17939885	-1.24041104	9.31974093	-0.76433807	-0.16622975	5.29862929	-8.69165860	-0.46434971	8.26837826	1.04398556	0.97580766	5.77160836	-2.76453580	7.82270500	7.52546052	-4.58753729	10.69241319
1582	15.81000000	8.49357786	-0.07352926	5.42801172	8.82086229	0.14179826	2.69902135	9.54428416	-0.46371133	-1.24821169	9.27209041	-0.43486101	-0.01846326	5.77236568	-8.98150600	-1.52588388	8.26245125	0.55284736	0.98031573	5.35686797	-2.70205769	7.97832029	8.92649521	-4.72405429	11.07802524
1583	15.82000000	8.44458403	-0.05650401	5.48372635	8.61570665	0.65420149	2.73943522	9.69900214	-0.52775963	-1.16147899	9.30240103	-0.52451776	0.05964957	5.55764227	-9.18359512	-0.97919841	7.98669187	0.18407753	0.71481244	5.40172181	-2.68067812	8.05547768	9.72381603	-4.03250574	11.04822664
1584	15.83000000	8.48452984	-0.10226734	5.42062728	8.50230421	1.15602637	2.75596945	9.69814956	-0.64554050	-0.93058938	9.15554326	-0.75964619	0.22646327	5.56769321	-7.38378194	1.11615193	7.67247469	0.06074401	0.40557234	5.13790393	-2.82184607	8.02560574	11.12072081	-1.90556757	11.72279807
1585	15.84000000	8.58499124	-0.16908909	5.42858011	8.57430019	1.60128823	2.64444419	9.43587965	-0.66098657	-0.70425874	9.07109697	-0.85326964	0.30446685	6.24119971	-4.47772620	2.33195373	7.50034845	-0.06131139	0.06509664	5.24181517	-2.87389709	7.78394256	13.21625252	-0.78446823	12.24906011
1586	15.85000000	8.53744392	-0.24183853	5.44566579	8.71404579	1.69377173	2.55730572	9.30078760	-0.61392529	-0.87553888	9.18556488	-0.97805745	0.31863363	6.90345841	-2.35124306	2.68890668	7.49958204	0.08762870	-0.11915779	5.27415355	-2.59115187	8.12313584	15.36988281	0.02374100	12.46281707
1587	15.86000000	8.51134027	-0.24803653	5.44896581	8.76685850	1.64631964	2.53604799	9.47019218	-0.17920280	-0.57790124	9.30717011	-1.04117748	0.35125520	7.53137805	-1.68358633	2.55585769	7.48520398	0.43071325	0.05367057	5.33605092	-2.54470004	8.10279030	15.82206619	1.11186855	12.04154241
1588	15.87000000	8.51259674	-0.27111512	5.46705077	8.82496271	1.36268195	2.50982365	9.74925329	0.24610187	-0.17657193	9.43790252	-1.01753196	0.45322410	8.80668852	-2.70088153	1.91896814	7.54915958	1.04764825	0.59222871	5.48437945	-2.32485264	8.08311317	13.69213044	1.70087271	10.44630747
1589	15.88000000	8.59692066	-0.30520070	5.44338027	8.94775011	1.08339981	2.58181418	9.75280788	0.66572146	-0.07272336	9.44344035	-1.00427660	0.54808495	10.32124341	-4.32399882	1.32666837	7.92808032	1.80230372	1.25887230	5.31946096	-2.14330890	8.22513711	13.15592137	1.42742424	9.39844670
1590	15.89000000	8.72720369	-0.28688736	5.49620942	9.09004536	0.81116788	2.61332178	9.54969456	0.79936413	-0.05761934	9.44296348	-1.02293913	0.63990629	11.32505794	-5.45217781	1.39171427	8.46951830	2.56691295	2.08306474	5.64433120	-2.14576165	8.07637340	14.45524724	1.95689584	9.73299974
1591	15.90000000	8.70968068	-0.27445138	5.54372020	9.18377042	0.51569779	2.62526666	9.43894911	0.44876233	-0.31422521	9.36917629	-1.08571488	0.59451120	11.14522281	-5.28915735	2.22901601	8.71772218	3.45843037	2.78371656	5.16174574	-2.24029518	8.19334597	14.67271139	2.89977830	10.27120343
1592	15.91000000	8.73263486	-0.29010374	5.59839327	9.22095599	0.36618026	2.54207102	9.64887557	-0.02772907	-0.56104418	9.32880007	-1.29761130	0.54983535	10.12843748	-3.78047533	2.83198481	8.71723995	4.39597611	2.93944867	5.08105097	-2.49812826	8.11190249	14.23751196	2.84657483	10.13689334
1593	15.92000000	8.81512718	-0.30444764	5.61818432	9.25227586	0.38229333	2.57477703	9.69602829	-0.37638433	-0.84711718	9.46251377	-1.49845464	0.50340649	9.53767728	-2.17548037	2.55416789	8.67742247	4.94743789	2.67198175	4.97888628	-2.47288057	8.25491097	14.10382410	2.14720869	9.99793029
1594	15.93000000	9.08454125	-0.28762131	5.65230116	9.25710142	0.42136312	2.55906463	9.96902590	-0.16776177	-1.17678854	9.53966200	-1.68225985	0.28378443	9.93784087	-1.70549295	1.84117990	8.79067533	4.81446054	2.30012761	5.32410974	-2.66529940	7.94235020	13.69892172	1.53689061	9.85189981
1595	15.94000000	9.26245222	-0.20932182	5.70237954	9.32154255	0.40006930	2.50085922	9.98282381	0.17769416	-1.06224560	9.35758522	-2.17998212	-0.02132842	10.62085023	-2.16749240	1.47701659	8.98611702	4.24722755	1.86237038	5.19064866	-2.59451457	8.07694229	13.12516574	1.31228469	9.76995970
1596	15.95000000	9.21787169	-0.15895677	5.76084714	9.40512726	0.27782334	2.47640413	9.84522329	0.70563017	-1.01889560	9.22175765	-2.60783606	-0.17863145	10.85694812	-2.44496321	1.31897328	9.18810705	3.52724331	1.43820303	5.24903274	-2.22178047	8.27736155	12.22180567	0.87208521	9.27800612
1597	15.96000000	9.06406022	-0.22040570	5.82917292	9.43761712	0.09129075	2.39755166	9.82624554	1.23761175	-1.05721374	9.19772946	-2.62225650	-0.21277799	10.71724225	-2.02294843	1.18940489	9.17838122	2.79087461	1.03646263	5.27555685	-2.39368401	8.20232887	11.76436824	0.87004162	9.42878888
1598	15.97000000	8.96334785	-0.24253186	5.82066616	9.50732619	-0.05912265	2.30409918	9.75198649	1.43153166	-0.88414367	9.17098816	-2.48723269	-0.19744180	10.43331135	-1.21483026	1.40426007	8.90142272	2.29702079	1.06749272	5.23213821	-2.53010129	7.98481271	12.43985134	0.88911556	9.77321790
1599	15.98000000	8.97282181	-0.21186402	5.83692362	9.47998785	-0.12050451	2.28449937	9.70240531	1.31071857	-1.31758605	9.07705910	-2.14100407	-0.02379183	10.19965199	-0.54753288	1.70047094	8.69976631	2.12849330	1.18104212	5.25236923	-2.42713734	8.21145883	12.82121284	0.63084177	9.88066360
